<svg width="46" height="50" viewBox="0 0 46 50" fill="none" xmlns="http://www.w3.org/2000/svg">
<g clip-path="url(#clip0_405_627)">
<path d="M23.2594 0L4.24524 10.1752C3.9235 10.0679 3.57494 10.0054 3.21745 10.0054C1.43891 10.0054 0 11.4443 0 13.2228C0 14.2953 0.527304 15.2426 1.33613 15.828L2.01537 36.804L23.2639 50.0045L44.508 36.7995L45.3168 11.7973L23.2594 0ZM23.2594 46.0631L4.19162 35.5438L4.57145 16.1364C5.67075 15.627 6.43489 14.5143 6.43489 13.2228C6.43489 13.0441 6.41702 12.8743 6.3902 12.7044L23.2594 2.5114L41.9028 13.768L42.3273 35.5438L23.2594 46.0631Z" fill="#050504"/>
<path d="M21.2125 34.3467C23.7273 31.832 23.7272 27.7548 21.2125 25.2401C18.6978 22.7254 14.6207 22.7254 12.106 25.2401C9.5913 27.7548 9.5913 31.832 12.106 34.3467C14.6207 36.8614 18.6978 36.8614 21.2125 34.3467Z" fill="#050504"/>
<path d="M30.2841 18.2411C30.2841 13.9557 26.7986 10.4656 22.5086 10.4656C18.2187 10.4656 14.7332 13.9512 14.7332 18.2411C14.7332 19.3047 14.9477 20.3146 15.3364 21.2396C15.7699 21.1726 16.2078 21.1279 16.6547 21.1279C19.9883 21.1279 22.884 23.0226 24.3319 25.7887C27.7459 24.962 30.2841 21.8965 30.2841 18.2411Z" fill="#050504"/>
<path d="M31.4773 22.6696C30.2171 25.2123 27.9068 27.1427 25.1139 27.8935C25.2524 28.5057 25.3239 29.1402 25.3239 29.7882C25.3239 31.3567 24.8994 32.8269 24.1665 34.1005C25.449 35.4723 27.2678 36.3393 29.2876 36.3393C33.153 36.3393 36.299 33.1933 36.299 29.3279C36.299 26.2266 34.2746 23.5946 31.4773 22.6696Z" fill="#050504"/>
</g>
<defs>
<clipPath id="clip0_405_627">
<rect width="45.3168" height="50" fill="white"/>
</clipPath>
</defs>
</svg>
